<?xml version="1.0" standalone="no"?>
<!DOCTYPE svg PUBLIC "-//W3C//DTD SVG 20010904//EN"
 "http://www.w3.org/TR/2001/REC-SVG-20010904/DTD/svg10.dtd">
<svg version="1.0" xmlns="http://www.w3.org/2000/svg"
 width="383.000000pt" height="368.000000pt" viewBox="0 0 383.000000 368.000000"
 preserveAspectRatio="xMidYMid meet">

<g transform="translate(0.000000,368.000000) scale(0.100000,-0.100000)"
fill="#000000" stroke="none">
<path d="M2470 3657 c-205 -74 -355 -261 -426 -532 -34 -128 -39 -340 -10
-445 81 -298 321 -464 544 -376 212 83 375 306 433 591 17 83 14 284 -5 375
-61 290 -309 470 -536 387z"/>
<path d="M1130 3656 c-71 -16 -112 -38 -173 -95 -65 -60 -110 -131 -144 -228
-26 -72 -28 -89 -28 -238 0 -135 4 -173 23 -244 48 -175 113 -293 221 -402
129 -128 276 -193 390 -170 165 33 293 168 346 367 71 262 -21 632 -205 828
-137 146 -292 212 -430 182z"/>
<path d="M3380 2565 c-184 -40 -356 -187 -459 -392 -53 -107 -82 -224 -88
-360 -5 -112 -4 -128 20 -205 62 -197 205 -309 376 -295 322 27 600 391 601
786 0 198 -92 373 -233 440 -78 37 -134 44 -217 26z"/>
<path d="M278 2486 c-193 -56 -292 -233 -275 -496 14 -204 90 -380 229 -525
85 -91 173 -149 280 -186 144 -50 250 -32 351 61 104 95 142 209 134 405 -6
143 -22 209 -82 332 -83 169 -211 301 -370 379 -84 42 -187 53 -267 30z"/>
<path d="M1810 1759 c-287 -50 -531 -211 -717 -471 -183 -257 -291 -490 -358
-776 -55 -234 72 -445 297 -493 109 -24 242 3 523 104 249 90 308 102 485 101
172 0 213 -11 503 -128 216 -88 295 -105 403 -86 128 22 226 87 275 182 33 63
38 207 11 315 -48 189 -230 507 -445 773 -195 243 -421 411 -622 466 -72 19
-278 27 -355 13z"/>
</g>
</svg>
